<svg width="26" height="25" viewBox="0 0 26 25" fill="none" xmlns="http://www.w3.org/2000/svg">
<path d="M13.0287 -2.71805e-05C19.9347 -2.71805e-05 25.5329 5.48667 25.5329 12.2549C25.5329 19.0231 19.9347 24.5098 13.0287 24.5098C6.12342 24.5098 0.525139 19.0231 0.525139 12.2549C0.525139 5.48667 6.12342 -2.71805e-05 13.0287 -2.71805e-05Z" fill="#283545"/>
<path d="M17.9253 16.8709C17.1984 16.7487 16.498 16.6541 15.9043 16.3234C15.8962 16.3166 16.2545 15.0034 16.2709 14.9799C17.2256 15.2976 18.5699 15.7432 19.4756 15.3349C19.97 15.0927 20.2134 14.6449 20.1318 14.1282C20.0393 13.5473 19.6286 13.2125 18.5026 12.7997C17.246 12.3394 16.5095 11.7734 16.2083 11.0376C16.0601 10.6758 16.0111 10.2152 16.0777 9.81285C16.2627 8.69383 17.1521 7.91535 18.5175 7.67737C18.9126 7.60846 19.7585 7.60779 20.1747 7.67597C20.7744 7.77427 21.4619 7.9966 21.4619 8.09216C21.4619 8.12735 21.111 9.34161 21.0926 9.36846C20.4997 9.13827 19.8353 8.97387 19.2723 8.97033C18.4761 8.96054 17.6125 9.42378 17.7648 10.242C17.8729 10.7547 18.2068 11.005 19.4355 11.4942C20.3406 11.8551 20.7751 12.1039 21.147 12.4741C21.6638 12.9804 21.8277 13.5743 21.8318 14.163C21.8331 14.6533 21.7862 14.8821 21.6074 15.2606C21.1742 16.1801 20.2923 16.7132 18.9622 16.8598C18.7134 16.8871 18.1272 16.8933 17.9266 16.8709H17.9253ZM4.28543 10.3435V16.8845H5.98335V10.3435H4.28543ZM5.13472 7.62599C4.63289 7.62599 4.22626 8.02479 4.22626 8.51662C4.22626 9.00852 4.63289 9.40725 5.13472 9.40725C5.63655 9.40725 6.04387 9.00852 6.04387 8.51662C6.04387 8.02479 5.63655 7.62599 5.13472 7.62599ZM11.7734 9.00852C12.6826 9.24597 13.3422 10.0498 13.5944 11.2223C13.7726 12.0458 13.7243 12.9973 13.47 13.7467C13.0736 14.9138 12.2154 15.573 11.171 15.5624C10.1272 15.5729 9.26768 14.9138 8.87193 13.7467C8.61762 12.9973 8.56933 12.0458 8.74681 11.2223C8.99977 10.0498 9.65936 9.24597 10.5685 9.00852C10.9806 8.92295 11.3913 8.93841 11.7734 9.00852ZM11.171 7.62599C10.4699 7.63505 9.86675 7.76967 9.2738 8.05917C7.75947 8.79832 6.88569 10.3548 6.88569 12.316C6.88569 14.2817 7.74587 15.792 9.26496 16.4985C9.67499 16.6894 10.0864 16.7933 10.7113 16.866C11.0275 16.8785 11.3226 16.9005 11.6306 16.866C12.2549 16.7933 12.6669 16.6894 13.077 16.4985C14.5961 15.792 15.4562 14.2818 15.4562 12.316C15.4562 10.3548 14.5818 8.79832 13.0681 8.05917C12.4752 7.76967 11.872 7.63505 11.171 7.62599Z" fill="white"/>
</svg>
