<svg width="138" height="41" viewBox="0 0 138 41" fill="none" xmlns="http://www.w3.org/2000/svg">
<path d="M128.95 19.5307H136.519V23.991H123.172V0.27002H128.95V19.5307Z" fill="#5C5C5C"/>
<path d="M114.946 0.27002V23.991H109.167V14.2255H100.179V23.991H94.4009V0.27002H100.179V9.56243H109.167V0.27002H114.946Z" fill="#5C5C5C"/>
<path d="M63.6271 12.097C63.6271 9.75422 64.134 7.67046 65.1477 5.84577C66.1614 3.99855 67.5694 2.56809 69.3715 1.55437C71.1962 0.518122 73.2575 0 75.5552 0C78.3711 0 80.7815 0.743393 82.7864 2.23018C84.7913 3.71697 86.1317 5.7444 86.8075 8.31249H80.4549C79.9818 7.3213 79.306 6.56664 78.4274 6.04852C77.5714 5.53039 76.5915 5.27133 75.4876 5.27133C73.708 5.27133 72.2663 5.89083 71.1624 7.12982C70.0586 8.3688 69.5067 10.0245 69.5067 12.097C69.5067 14.1695 70.0586 15.8253 71.1624 17.0642C72.2663 18.3032 73.708 18.9227 75.4876 18.9227C76.5915 18.9227 77.5714 18.6637 78.4274 18.1456C79.306 17.6274 79.9818 16.8728 80.4549 15.8816H86.8075C86.1317 18.4497 84.7913 20.4771 82.7864 21.9639C80.7815 23.4281 78.3711 24.1603 75.5552 24.1603C73.2575 24.1603 71.1962 23.6534 69.3715 22.6397C67.5694 21.6035 66.1614 20.173 65.1477 18.3483C64.134 16.5236 63.6271 14.4398 63.6271 12.097Z" fill="#5C5C5C"/>
<path d="M50.4047 19.801H41.5516L40.1324 23.991H34.0839L42.6667 0.27002H49.3572L57.94 23.991H51.8239L50.4047 19.801ZM48.9179 15.3406L45.9782 6.65644L43.0722 15.3406H48.9179Z" fill="#5C5C5C"/>
<g clip-path="url(#clip0_238_64)">
<path d="M3.33333 0C1.49479 0 0 1.34531 0 3V21C0 22.6547 1.49479 24 3.33333 24H16.6667C18.5052 24 20 22.6547 20 21V3C20 1.34531 18.5052 0 16.6667 0H3.33333ZM5 3H15C15.9219 3 16.6667 3.67031 16.6667 4.5V6C16.6667 6.82969 15.9219 7.5 15 7.5H5C4.07812 7.5 3.33333 6.82969 3.33333 6V4.5C3.33333 3.67031 4.07812 3 5 3ZM6.66667 10.5C6.66667 10.8978 6.49107 11.2794 6.17851 11.5607C5.86595 11.842 5.44203 12 5 12C4.55797 12 4.13405 11.842 3.82149 11.5607C3.50893 11.2794 3.33333 10.8978 3.33333 10.5C3.33333 10.1022 3.50893 9.72064 3.82149 9.43934C4.13405 9.15804 4.55797 9 5 9C5.44203 9 5.86595 9.15804 6.17851 9.43934C6.49107 9.72064 6.66667 10.1022 6.66667 10.5ZM5 16.5C4.55797 16.5 4.13405 16.342 3.82149 16.0607C3.50893 15.7794 3.33333 15.3978 3.33333 15C3.33333 14.6022 3.50893 14.2206 3.82149 13.9393C4.13405 13.658 4.55797 13.5 5 13.5C5.44203 13.5 5.86595 13.658 6.17851 13.9393C6.49107 14.2206 6.66667 14.6022 6.66667 15C6.66667 15.3978 6.49107 15.7794 6.17851 16.0607C5.86595 16.342 5.44203 16.5 5 16.5ZM3.33333 19.5C3.33333 18.6703 4.07812 18 5 18H10C10.9219 18 11.6667 18.6703 11.6667 19.5C11.6667 20.3297 10.9219 21 10 21H5C4.07812 21 3.33333 20.3297 3.33333 19.5ZM10 12C9.55797 12 9.13405 11.842 8.82149 11.5607C8.50893 11.2794 8.33333 10.8978 8.33333 10.5C8.33333 10.1022 8.50893 9.72064 8.82149 9.43934C9.13405 9.15804 9.55797 9 10 9C10.442 9 10.866 9.15804 11.1785 9.43934C11.4911 9.72064 11.6667 10.1022 11.6667 10.5C11.6667 10.8978 11.4911 11.2794 11.1785 11.5607C10.866 11.842 10.442 12 10 12ZM11.6667 15C11.6667 15.3978 11.4911 15.7794 11.1785 16.0607C10.866 16.342 10.442 16.5 10 16.5C9.55797 16.5 9.13405 16.342 8.82149 16.0607C8.50893 15.7794 8.33333 15.3978 8.33333 15C8.33333 14.6022 8.50893 14.2206 8.82149 13.9393C9.13405 13.658 9.55797 13.5 10 13.5C10.442 13.5 10.866 13.658 11.1785 13.9393C11.4911 14.2206 11.6667 14.6022 11.6667 15ZM15 12C14.558 12 14.134 11.842 13.8215 11.5607C13.5089 11.2794 13.3333 10.8978 13.3333 10.5C13.3333 10.1022 13.5089 9.72064 13.8215 9.43934C14.134 9.15804 14.558 9 15 9C15.442 9 15.8659 9.15804 16.1785 9.43934C16.4911 9.72064 16.6667 10.1022 16.6667 10.5C16.6667 10.8978 16.4911 11.2794 16.1785 11.5607C15.8659 11.842 15.442 12 15 12ZM16.6667 15C16.6667 15.3978 16.4911 15.7794 16.1785 16.0607C15.8659 16.342 15.442 16.5 15 16.5C14.558 16.5 14.134 16.342 13.8215 16.0607C13.5089 15.7794 13.3333 15.3978 13.3333 15C13.3333 14.6022 13.5089 14.2206 13.8215 13.9393C14.134 13.658 14.558 13.5 15 13.5C15.442 13.5 15.8659 13.658 16.1785 13.9393C16.4911 14.2206 16.6667 14.6022 16.6667 15ZM15 21C14.558 21 14.134 20.842 13.8215 20.5607C13.5089 20.2794 13.3333 19.8978 13.3333 19.5C13.3333 19.1022 13.5089 18.7206 13.8215 18.4393C14.134 18.158 14.558 18 15 18C15.442 18 15.8659 18.158 16.1785 18.4393C16.4911 18.7206 16.6667 19.1022 16.6667 19.5C16.6667 19.8978 16.4911 20.2794 16.1785 20.5607C15.8659 20.842 15.442 21 15 21Z" fill="#0094FF"/>
</g>
<path d="M135.29 35.5518C135.812 35.5518 136.239 35.7144 136.57 36.0398C136.9 36.3598 137.066 36.8264 137.066 37.4398V39.9998H136.514V37.5038C136.514 37.0291 136.394 36.6664 136.154 36.4158C135.919 36.1651 135.596 36.0398 135.186 36.0398C134.764 36.0398 134.428 36.1731 134.178 36.4398C133.927 36.7064 133.802 37.0984 133.802 37.6158V39.9998H133.242V35.6318H133.802V36.3758C133.94 36.1091 134.14 35.9064 134.402 35.7678C134.663 35.6238 134.959 35.5518 135.29 35.5518Z" fill="#989898"/>
<path d="M127.587 37.8079C127.587 37.3599 127.675 36.9679 127.851 36.6319C128.032 36.2905 128.28 36.0292 128.595 35.8479C128.915 35.6612 129.275 35.5679 129.675 35.5679C130.091 35.5679 130.448 35.6639 130.747 35.8559C131.051 36.0479 131.27 36.2932 131.403 36.5919V35.6319H131.963V39.9999H131.403V39.0319C131.264 39.3305 131.043 39.5785 130.739 39.7759C130.44 39.9679 130.083 40.0639 129.667 40.0639C129.272 40.0639 128.915 39.9705 128.595 39.7839C128.28 39.5972 128.032 39.3332 127.851 38.9919C127.675 38.6505 127.587 38.2559 127.587 37.8079ZM131.403 37.8159C131.403 37.4639 131.331 37.1545 131.187 36.8879C131.043 36.6212 130.846 36.4159 130.595 36.2719C130.35 36.1279 130.078 36.0559 129.779 36.0559C129.47 36.0559 129.192 36.1252 128.947 36.2639C128.702 36.4025 128.507 36.6052 128.363 36.8719C128.224 37.1332 128.155 37.4452 128.155 37.8079C128.155 38.1652 128.224 38.4799 128.363 38.7519C128.507 39.0185 128.702 39.2239 128.947 39.3679C129.192 39.5065 129.47 39.5759 129.779 39.5759C130.078 39.5759 130.35 39.5039 130.595 39.3599C130.846 39.2159 131.043 39.0105 131.187 38.7439C131.331 38.4772 131.403 38.1679 131.403 37.8159Z" fill="#989898"/>
<path d="M124.622 40.0639C124.212 40.0639 123.841 39.9732 123.51 39.7919C123.185 39.6052 122.926 39.3439 122.734 39.0079C122.548 38.6665 122.454 38.2692 122.454 37.8159C122.454 37.3625 122.55 36.9679 122.742 36.6319C122.934 36.2905 123.196 36.0292 123.526 35.8479C123.857 35.6612 124.228 35.5679 124.638 35.5679C125.049 35.5679 125.42 35.6612 125.75 35.8479C126.086 36.0292 126.348 36.2905 126.534 36.6319C126.726 36.9679 126.822 37.3625 126.822 37.8159C126.822 38.2639 126.726 38.6585 126.534 38.9999C126.342 39.3412 126.078 39.6052 125.742 39.7919C125.406 39.9732 125.033 40.0639 124.622 40.0639ZM124.622 39.5759C124.91 39.5759 125.177 39.5119 125.422 39.3839C125.668 39.2505 125.865 39.0532 126.014 38.7919C126.169 38.5252 126.246 38.1999 126.246 37.8159C126.246 37.4319 126.172 37.1092 126.022 36.8479C125.873 36.5812 125.676 36.3839 125.43 36.2559C125.185 36.1225 124.918 36.0559 124.63 36.0559C124.342 36.0559 124.076 36.1225 123.83 36.2559C123.585 36.3839 123.388 36.5812 123.238 36.8479C123.094 37.1092 123.022 37.4319 123.022 37.8159C123.022 38.1999 123.094 38.5252 123.238 38.7919C123.388 39.0532 123.582 39.2505 123.822 39.3839C124.068 39.5119 124.334 39.5759 124.622 39.5759Z" fill="#989898"/>
<path d="M121.442 34.0801V40.0001H120.882V34.0801H121.442Z" fill="#989898"/>
<path d="M117.662 37.5919C117.662 37.7839 117.657 37.9305 117.646 38.0319H114.022C114.038 38.3625 114.118 38.6452 114.262 38.8799C114.406 39.1145 114.596 39.2932 114.83 39.4159C115.065 39.5332 115.321 39.5919 115.598 39.5919C115.961 39.5919 116.265 39.5039 116.51 39.3279C116.761 39.1519 116.926 38.9145 117.006 38.6159H117.598C117.492 39.0425 117.262 39.3919 116.91 39.6639C116.564 39.9305 116.126 40.0639 115.598 40.0639C115.188 40.0639 114.82 39.9732 114.494 39.7919C114.169 39.6052 113.913 39.3439 113.726 39.0079C113.545 38.6665 113.454 38.2692 113.454 37.8159C113.454 37.3625 113.545 36.9652 113.726 36.6239C113.908 36.2825 114.161 36.0212 114.486 35.8399C114.812 35.6585 115.182 35.5679 115.598 35.5679C116.014 35.5679 116.377 35.6585 116.686 35.8399C117.001 36.0212 117.241 36.2665 117.406 36.5759C117.577 36.8799 117.662 37.2185 117.662 37.5919ZM117.094 37.5759C117.1 37.2505 117.033 36.9732 116.894 36.7439C116.761 36.5145 116.577 36.3412 116.342 36.2239C116.108 36.1065 115.852 36.0479 115.574 36.0479C115.158 36.0479 114.804 36.1812 114.51 36.4479C114.217 36.7145 114.054 37.0905 114.022 37.5759H117.094Z" fill="#989898"/>
<path d="M110.731 35.5518C111.243 35.5518 111.659 35.7144 111.979 36.0398C112.304 36.3598 112.467 36.8264 112.467 37.4398V39.9998H111.915V37.5038C111.915 37.0291 111.8 36.6664 111.571 36.4158C111.341 36.1651 111.029 36.0398 110.635 36.0398C110.224 36.0398 109.896 36.1758 109.651 36.4478C109.405 36.7198 109.283 37.1144 109.283 37.6318V39.9998H108.731V37.5038C108.731 37.0291 108.616 36.6664 108.387 36.4158C108.157 36.1651 107.843 36.0398 107.443 36.0398C107.032 36.0398 106.704 36.1758 106.459 36.4478C106.213 36.7198 106.091 37.1144 106.091 37.6318V39.9998H105.531V35.6318H106.091V36.3838C106.229 36.1118 106.427 35.9064 106.683 35.7678C106.939 35.6238 107.224 35.5518 107.539 35.5518C107.917 35.5518 108.248 35.6424 108.531 35.8238C108.819 36.0051 109.027 36.2718 109.155 36.6238C109.272 36.2771 109.472 36.0131 109.755 35.8318C110.043 35.6451 110.368 35.5518 110.731 35.5518Z" fill="#989898"/>
<path d="M102.31 40.0639C101.899 40.0639 101.528 39.9732 101.198 39.7919C100.872 39.6052 100.614 39.3439 100.422 39.0079C100.235 38.6665 100.142 38.2692 100.142 37.8159C100.142 37.3625 100.238 36.9679 100.43 36.6319C100.622 36.2905 100.883 36.0292 101.214 35.8479C101.544 35.6612 101.915 35.5679 102.326 35.5679C102.736 35.5679 103.107 35.6612 103.438 35.8479C103.774 36.0292 104.035 36.2905 104.222 36.6319C104.414 36.9679 104.51 37.3625 104.51 37.8159C104.51 38.2639 104.414 38.6585 104.222 38.9999C104.03 39.3412 103.766 39.6052 103.43 39.7919C103.094 39.9732 102.72 40.0639 102.31 40.0639ZM102.31 39.5759C102.598 39.5759 102.864 39.5119 103.11 39.3839C103.355 39.2505 103.552 39.0532 103.702 38.7919C103.856 38.5252 103.934 38.1999 103.934 37.8159C103.934 37.4319 103.859 37.1092 103.71 36.8479C103.56 36.5812 103.363 36.3839 103.118 36.2559C102.872 36.1225 102.606 36.0559 102.318 36.0559C102.03 36.0559 101.763 36.1225 101.518 36.2559C101.272 36.3839 101.075 36.5812 100.926 36.8479C100.782 37.1092 100.71 37.4319 100.71 37.8159C100.71 38.1999 100.782 38.5252 100.926 38.7919C101.075 39.0532 101.27 39.2505 101.51 39.3839C101.755 39.5119 102.022 39.5759 102.31 39.5759Z" fill="#989898"/>
<path d="M97.4153 35.5521C97.746 35.5521 98.042 35.6214 98.3033 35.7601C98.57 35.8987 98.778 36.1121 98.9273 36.4001C99.082 36.6827 99.1593 37.0294 99.1593 37.4401V40.0001H98.6073V37.5041C98.6073 37.0294 98.4873 36.6667 98.2473 36.4161C98.0127 36.1654 97.69 36.0401 97.2793 36.0401C96.858 36.0401 96.522 36.1734 96.2713 36.4401C96.0207 36.7067 95.8953 37.0987 95.8953 37.6161V40.0001H95.3353V34.0801H95.8953V36.3761C96.034 36.1147 96.2367 35.9121 96.5033 35.7681C96.7753 35.6241 97.0793 35.5521 97.4153 35.5521Z" fill="#989898"/>
<path d="M90.8016 36.4078C90.9242 36.1358 91.1109 35.9251 91.3616 35.7758C91.6176 35.6264 91.9296 35.5518 92.2976 35.5518V36.1358H92.1456C91.7402 36.1358 91.4149 36.2451 91.1696 36.4638C90.9242 36.6824 90.8016 37.0478 90.8016 37.5598V39.9998H90.2416V35.6318H90.8016V36.4078Z" fill="#989898"/>
<path d="M87.0208 40.0639C86.6101 40.0639 86.2394 39.9732 85.9088 39.7919C85.5834 39.6052 85.3248 39.3439 85.1328 39.0079C84.9461 38.6665 84.8528 38.2692 84.8528 37.8159C84.8528 37.3625 84.9487 36.9679 85.1407 36.6319C85.3327 36.2905 85.5941 36.0292 85.9248 35.8479C86.2554 35.6612 86.6261 35.5679 87.0368 35.5679C87.4474 35.5679 87.8181 35.6612 88.1488 35.8479C88.4848 36.0292 88.7461 36.2905 88.9327 36.6319C89.1247 36.9679 89.2207 37.3625 89.2207 37.8159C89.2207 38.2639 89.1247 38.6585 88.9327 38.9999C88.7407 39.3412 88.4767 39.6052 88.1407 39.7919C87.8047 39.9732 87.4314 40.0639 87.0208 40.0639ZM87.0208 39.5759C87.3088 39.5759 87.5754 39.5119 87.8207 39.3839C88.0661 39.2505 88.2634 39.0532 88.4128 38.7919C88.5674 38.5252 88.6448 38.1999 88.6448 37.8159C88.6448 37.4319 88.5701 37.1092 88.4208 36.8479C88.2714 36.5812 88.0741 36.3839 87.8288 36.2559C87.5834 36.1225 87.3167 36.0559 87.0287 36.0559C86.7407 36.0559 86.4741 36.1225 86.2288 36.2559C85.9834 36.3839 85.7861 36.5812 85.6367 36.8479C85.4927 37.1092 85.4208 37.4319 85.4208 37.8159C85.4208 38.1999 85.4927 38.5252 85.6367 38.7919C85.7861 39.0532 85.9807 39.2505 86.2207 39.3839C86.4661 39.5119 86.7328 39.5759 87.0208 39.5759Z" fill="#989898"/>
<path d="M82.9852 36.1041V38.8161C82.9852 39.0828 83.0359 39.2668 83.1372 39.3681C83.2385 39.4695 83.4172 39.5201 83.6732 39.5201H84.1852V40.0001H83.5852C83.1905 40.0001 82.8972 39.9095 82.7052 39.7281C82.5132 39.5415 82.4172 39.2375 82.4172 38.8161V36.1041H81.8092V35.6321H82.4172V34.5361H82.9852V35.6321H84.1852V36.1041H82.9852Z" fill="#989898"/>
<path d="M76.6028 37.8079C76.6028 37.3599 76.6908 36.9679 76.8668 36.6319C77.0481 36.2905 77.2961 36.0292 77.6107 35.8479C77.9307 35.6612 78.2908 35.5679 78.6908 35.5679C79.1068 35.5679 79.4641 35.6639 79.7627 35.8559C80.0667 36.0479 80.2854 36.2932 80.4187 36.5919V35.6319H80.9788V39.9999H80.4187V39.0319C80.2801 39.3305 80.0588 39.5785 79.7548 39.7759C79.4561 39.9679 79.0987 40.0639 78.6827 40.0639C78.2881 40.0639 77.9307 39.9705 77.6107 39.7839C77.2961 39.5972 77.0481 39.3332 76.8668 38.9919C76.6908 38.6505 76.6028 38.2559 76.6028 37.8079ZM80.4187 37.8159C80.4187 37.4639 80.3468 37.1545 80.2028 36.8879C80.0588 36.6212 79.8614 36.4159 79.6107 36.2719C79.3654 36.1279 79.0934 36.0559 78.7948 36.0559C78.4854 36.0559 78.2081 36.1252 77.9628 36.2639C77.7174 36.4025 77.5228 36.6052 77.3788 36.8719C77.2401 37.1332 77.1708 37.4452 77.1708 37.8079C77.1708 38.1652 77.2401 38.4799 77.3788 38.7519C77.5228 39.0185 77.7174 39.2239 77.9628 39.3679C78.2081 39.5065 78.4854 39.5759 78.7948 39.5759C79.0934 39.5759 79.3654 39.5039 79.6107 39.3599C79.8614 39.2159 80.0588 39.0105 80.2028 38.7439C80.3468 38.4772 80.4187 38.1679 80.4187 37.8159Z" fill="#989898"/>
<path d="M75.5906 34.0801V40.0001H75.0306V34.0801H75.5906Z" fill="#989898"/>
<path d="M73.7521 35.6318V39.9998H73.1921V39.2318C73.0641 39.5038 72.8668 39.7118 72.6001 39.8558C72.3335 39.9998 72.0348 40.0718 71.7041 40.0718C71.1815 40.0718 70.7548 39.9118 70.4241 39.5918C70.0935 39.2665 69.9281 38.7972 69.9281 38.1838V35.6318H70.4801V38.1198C70.4801 38.5945 70.5975 38.9572 70.8321 39.2078C71.0721 39.4585 71.3975 39.5838 71.8081 39.5838C72.2295 39.5838 72.5655 39.4505 72.8161 39.1838C73.0668 38.9172 73.1921 38.5252 73.1921 38.0078V35.6318H73.7521Z" fill="#989898"/>
<path d="M64.8059 37.8159C64.8059 37.3625 64.8965 36.9679 65.0779 36.6319C65.2592 36.2905 65.5099 36.0292 65.8299 35.8479C66.1499 35.6612 66.5152 35.5679 66.9259 35.5679C67.4645 35.5679 67.9072 35.7012 68.2539 35.9679C68.6059 36.2345 68.8325 36.5972 68.9339 37.0559H68.3339C68.2592 36.7412 68.0965 36.4959 67.8459 36.3199C67.6005 36.1385 67.2939 36.0479 66.9259 36.0479C66.6325 36.0479 66.3685 36.1145 66.1339 36.2479C65.8992 36.3812 65.7125 36.5812 65.5739 36.8479C65.4405 37.1092 65.3739 37.4319 65.3739 37.8159C65.3739 38.1999 65.4405 38.5252 65.5739 38.7919C65.7125 39.0585 65.8992 39.2585 66.1339 39.3919C66.3685 39.5252 66.6325 39.5919 66.9259 39.5919C67.2939 39.5919 67.6005 39.5039 67.8459 39.3279C68.0965 39.1465 68.2592 38.8959 68.3339 38.5759H68.9339C68.8325 39.0239 68.6059 39.3839 68.2539 39.6559C67.9019 39.9279 67.4592 40.0639 66.9259 40.0639C66.5152 40.0639 66.1499 39.9732 65.8299 39.7919C65.5099 39.6052 65.2592 39.3439 65.0779 39.0079C64.8965 38.6665 64.8059 38.2692 64.8059 37.8159Z" fill="#989898"/>
<path d="M63.7938 34.0801V40.0001H63.2338V34.0801H63.7938Z" fill="#989898"/>
<path d="M57.5793 37.8079C57.5793 37.3599 57.6673 36.9679 57.8433 36.6319C58.0246 36.2905 58.2726 36.0292 58.5873 35.8479C58.9073 35.6612 59.2673 35.5679 59.6673 35.5679C60.0833 35.5679 60.4406 35.6639 60.7393 35.8559C61.0433 36.0479 61.262 36.2932 61.3953 36.5919V35.6319H61.9553V39.9999H61.3953V39.0319C61.2567 39.3305 61.0353 39.5785 60.7313 39.7759C60.4326 39.9679 60.0753 40.0639 59.6593 40.0639C59.2647 40.0639 58.9073 39.9705 58.5873 39.7839C58.2726 39.5972 58.0246 39.3332 57.8433 38.9919C57.6673 38.6505 57.5793 38.2559 57.5793 37.8079ZM61.3953 37.8159C61.3953 37.4639 61.3233 37.1545 61.1793 36.8879C61.0353 36.6212 60.838 36.4159 60.5873 36.2719C60.342 36.1279 60.07 36.0559 59.7713 36.0559C59.462 36.0559 59.1846 36.1252 58.9393 36.2639C58.694 36.4025 58.4993 36.6052 58.3553 36.8719C58.2166 37.1332 58.1473 37.4452 58.1473 37.8079C58.1473 38.1652 58.2166 38.4799 58.3553 38.7519C58.4993 39.0185 58.694 39.2239 58.9393 39.3679C59.1846 39.5065 59.462 39.5759 59.7713 39.5759C60.07 39.5759 60.342 39.5039 60.5873 39.3599C60.838 39.2159 61.0353 39.0105 61.1793 38.7439C61.3233 38.4772 61.3953 38.1679 61.3953 37.8159Z" fill="#989898"/>
<path d="M52.6731 37.8159C52.6731 37.3625 52.7637 36.9679 52.9451 36.6319C53.1264 36.2905 53.3771 36.0292 53.6971 35.8479C54.0171 35.6612 54.3824 35.5679 54.7931 35.5679C55.3317 35.5679 55.7744 35.7012 56.1211 35.9679C56.4731 36.2345 56.6997 36.5972 56.8011 37.0559H56.2011C56.1264 36.7412 55.9637 36.4959 55.7131 36.3199C55.4677 36.1385 55.1611 36.0479 54.7931 36.0479C54.4997 36.0479 54.2357 36.1145 54.0011 36.2479C53.7664 36.3812 53.5797 36.5812 53.4411 36.8479C53.3077 37.1092 53.2411 37.4319 53.2411 37.8159C53.2411 38.1999 53.3077 38.5252 53.4411 38.7919C53.5797 39.0585 53.7664 39.2585 54.0011 39.3919C54.2357 39.5252 54.4997 39.5919 54.7931 39.5919C55.1611 39.5919 55.4677 39.5039 55.7131 39.3279C55.9637 39.1465 56.1264 38.8959 56.2011 38.5759H56.8011C56.6997 39.0239 56.4731 39.3839 56.1211 39.6559C55.7691 39.9279 55.3264 40.0639 54.7931 40.0639C54.3824 40.0639 54.0171 39.9732 53.6971 39.7919C53.3771 39.6052 53.1264 39.3439 52.9451 39.0079C52.7637 38.6665 52.6731 38.2692 52.6731 37.8159Z" fill="#989898"/>
<path d="M47.7193 35.5518C48.2419 35.5518 48.6686 35.7144 48.9993 36.0398C49.3299 36.3598 49.4953 36.8264 49.4953 37.4398V39.9998H48.9433V37.5038C48.9433 37.0291 48.8233 36.6664 48.5833 36.4158C48.3486 36.1651 48.0259 36.0398 47.6153 36.0398C47.1939 36.0398 46.8579 36.1731 46.6073 36.4398C46.3566 36.7064 46.2313 37.0984 46.2313 37.6158V39.9998H45.6713V35.6318H46.2313V36.3758C46.3699 36.1091 46.5699 35.9064 46.8313 35.7678C47.0926 35.6238 47.3886 35.5518 47.7193 35.5518Z" fill="#989898"/>
<path d="M42.4504 40.0639C42.0398 40.0639 41.6691 39.9732 41.3384 39.7919C41.0131 39.6052 40.7544 39.3439 40.5624 39.0079C40.3758 38.6665 40.2824 38.2692 40.2824 37.8159C40.2824 37.3625 40.3784 36.9679 40.5704 36.6319C40.7624 36.2905 41.0238 36.0292 41.3544 35.8479C41.6851 35.6612 42.0558 35.5679 42.4664 35.5679C42.8771 35.5679 43.2478 35.6612 43.5784 35.8479C43.9144 36.0292 44.1758 36.2905 44.3624 36.6319C44.5544 36.9679 44.6504 37.3625 44.6504 37.8159C44.6504 38.2639 44.5544 38.6585 44.3624 38.9999C44.1704 39.3412 43.9064 39.6052 43.5704 39.7919C43.2344 39.9732 42.8611 40.0639 42.4504 40.0639ZM42.4504 39.5759C42.7384 39.5759 43.0051 39.5119 43.2504 39.3839C43.4958 39.2505 43.6931 39.0532 43.8424 38.7919C43.9971 38.5252 44.0744 38.1999 44.0744 37.8159C44.0744 37.4319 43.9998 37.1092 43.8504 36.8479C43.7011 36.5812 43.5038 36.3839 43.2584 36.2559C43.0131 36.1225 42.7464 36.0559 42.4584 36.0559C42.1704 36.0559 41.9038 36.1225 41.6584 36.2559C41.4131 36.3839 41.2158 36.5812 41.0664 36.8479C40.9224 37.1092 40.8504 37.4319 40.8504 37.8159C40.8504 38.1999 40.9224 38.5252 41.0664 38.7919C41.2158 39.0532 41.4104 39.2505 41.6504 39.3839C41.8958 39.5119 42.1624 39.5759 42.4504 39.5759Z" fill="#989898"/>
<path d="M38.9903 34.8079C38.8783 34.8079 38.7823 34.7679 38.7023 34.6879C38.6223 34.6079 38.5823 34.5092 38.5823 34.3919C38.5823 34.2746 38.6223 34.1786 38.7023 34.1039C38.7823 34.0239 38.8783 33.9839 38.9903 33.9839C39.1023 33.9839 39.1983 34.0239 39.2783 34.1039C39.3583 34.1786 39.3983 34.2746 39.3983 34.3919C39.3983 34.5092 39.3583 34.6079 39.2783 34.6879C39.1983 34.7679 39.1023 34.8079 38.9903 34.8079ZM39.2703 35.6319V39.9999H38.7103V35.6319H39.2703Z" fill="#989898"/>
<path d="M36.5868 36.1041V38.8161C36.5868 39.0828 36.6374 39.2668 36.7388 39.3681C36.8401 39.4695 37.0188 39.5201 37.2748 39.5201H37.7868V40.0001H37.1868C36.7921 40.0001 36.4988 39.9095 36.3068 39.7281C36.1148 39.5415 36.0188 39.2375 36.0188 38.8161V36.1041H35.4108V35.6321H36.0188V34.5361H36.5868V35.6321H37.7868V36.1041H36.5868Z" fill="#989898"/>
<path d="M30.2043 37.8079C30.2043 37.3599 30.2923 36.9679 30.4683 36.6319C30.6496 36.2905 30.8976 36.0292 31.2123 35.8479C31.5323 35.6612 31.8923 35.5679 32.2923 35.5679C32.7083 35.5679 33.0656 35.6639 33.3643 35.8559C33.6683 36.0479 33.887 36.2932 34.0203 36.5919V35.6319H34.5803V39.9999H34.0203V39.0319C33.8816 39.3305 33.6603 39.5785 33.3563 39.7759C33.0576 39.9679 32.7003 40.0639 32.2843 40.0639C31.8896 40.0639 31.5323 39.9705 31.2123 39.7839C30.8976 39.5972 30.6496 39.3332 30.4683 38.9919C30.2923 38.6505 30.2043 38.2559 30.2043 37.8079ZM34.0203 37.8159C34.0203 37.4639 33.9483 37.1545 33.8043 36.8879C33.6603 36.6212 33.463 36.4159 33.2123 36.2719C32.967 36.1279 32.695 36.0559 32.3963 36.0559C32.087 36.0559 31.8096 36.1252 31.5643 36.2639C31.319 36.4025 31.1243 36.6052 30.9803 36.8719C30.8416 37.1332 30.7723 37.4452 30.7723 37.8079C30.7723 38.1652 30.8416 38.4799 30.9803 38.7519C31.1243 39.0185 31.319 39.2239 31.5643 39.3679C31.8096 39.5065 32.087 39.5759 32.3963 39.5759C32.695 39.5759 32.967 39.5039 33.2123 39.3599C33.463 39.2159 33.6603 39.0105 33.8043 38.7439C33.9483 38.4772 34.0203 38.1679 34.0203 37.8159Z" fill="#989898"/>
<path d="M27.2251 39.5358H29.5131V39.9998H26.5851V39.5358L28.8331 36.0958H26.6251V35.6318H29.4731V36.0958L27.2251 39.5358Z" fill="#989898"/>
<path d="M25.3809 34.8079C25.2689 34.8079 25.1729 34.7679 25.0929 34.6879C25.0129 34.6079 24.9729 34.5092 24.9729 34.3919C24.9729 34.2746 25.0129 34.1786 25.0929 34.1039C25.1729 34.0239 25.2689 33.9839 25.3809 33.9839C25.4929 33.9839 25.5889 34.0239 25.6689 34.1039C25.7489 34.1786 25.7889 34.2746 25.7889 34.3919C25.7889 34.5092 25.7489 34.6079 25.6689 34.6879C25.5889 34.7679 25.4929 34.8079 25.3809 34.8079ZM25.6609 35.6319V39.9999H25.1009V35.6319H25.6609Z" fill="#989898"/>
<path d="M22.9774 36.1041V38.8161C22.9774 39.0828 23.028 39.2668 23.1294 39.3681C23.2307 39.4695 23.4094 39.5201 23.6654 39.5201H24.1774V40.0001H23.5774C23.1827 40.0001 22.8894 39.9095 22.6974 39.7281C22.5054 39.5415 22.4094 39.2375 22.4094 38.8161V36.1041H21.8014V35.6321H22.4094V34.5361H22.9774V35.6321H24.1774V36.1041H22.9774Z" fill="#989898"/>
<path d="M19.911 36.4078C20.0336 36.1358 20.2203 35.9251 20.471 35.7758C20.727 35.6264 21.039 35.5518 21.407 35.5518V36.1358H21.255C20.8496 36.1358 20.5243 36.2451 20.279 36.4638C20.0336 36.6824 19.911 37.0478 19.911 37.5598V39.9998H19.351V35.6318H19.911V36.4078Z" fill="#989898"/>
<path d="M16.1301 40.0639C15.7195 40.0639 15.3488 39.9732 15.0181 39.7919C14.6928 39.6052 14.4341 39.3439 14.2421 39.0079C14.0555 38.6665 13.9621 38.2692 13.9621 37.8159C13.9621 37.3625 14.0581 36.9679 14.2501 36.6319C14.4421 36.2905 14.7035 36.0292 15.0341 35.8479C15.3648 35.6612 15.7355 35.5679 16.1461 35.5679C16.5568 35.5679 16.9275 35.6612 17.2581 35.8479C17.5941 36.0292 17.8555 36.2905 18.0421 36.6319C18.2341 36.9679 18.3301 37.3625 18.3301 37.8159C18.3301 38.2639 18.2341 38.6585 18.0421 38.9999C17.8501 39.3412 17.5861 39.6052 17.2501 39.7919C16.9141 39.9732 16.5408 40.0639 16.1301 40.0639ZM16.1301 39.5759C16.4181 39.5759 16.6848 39.5119 16.9301 39.3839C17.1755 39.2505 17.3728 39.0532 17.5221 38.7919C17.6768 38.5252 17.7541 38.1999 17.7541 37.8159C17.7541 37.4319 17.6795 37.1092 17.5301 36.8479C17.3808 36.5812 17.1835 36.3839 16.9381 36.2559C16.6928 36.1225 16.4261 36.0559 16.1381 36.0559C15.8501 36.0559 15.5835 36.1225 15.3381 36.2559C15.0928 36.3839 14.8955 36.5812 14.7461 36.8479C14.6021 37.1092 14.5301 37.4319 14.5301 37.8159C14.5301 38.1999 14.6021 38.5252 14.7461 38.7919C14.8955 39.0532 15.0901 39.2505 15.3301 39.3839C15.5755 39.5119 15.8421 39.5759 16.1301 39.5759Z" fill="#989898"/>
<path d="M11.2385 35.5518C11.7505 35.5518 12.1665 35.7144 12.4865 36.0398C12.8118 36.3598 12.9745 36.8264 12.9745 37.4398V39.9998H12.4225V37.5038C12.4225 37.0291 12.3078 36.6664 12.0785 36.4158C11.8491 36.1651 11.5371 36.0398 11.1425 36.0398C10.7318 36.0398 10.4038 36.1758 10.1585 36.4478C9.91312 36.7198 9.79045 37.1144 9.79045 37.6318V39.9998H9.23845V37.5038C9.23845 37.0291 9.12379 36.6664 8.89445 36.4158C8.66512 36.1651 8.35045 36.0398 7.95045 36.0398C7.53979 36.0398 7.21179 36.1758 6.96645 36.4478C6.72112 36.7198 6.59845 37.1144 6.59845 37.6318V39.9998H6.03845V35.6318H6.59845V36.3838C6.73712 36.1118 6.93445 35.9064 7.19045 35.7678C7.44645 35.6238 7.73179 35.5518 8.04645 35.5518C8.42512 35.5518 8.75579 35.6424 9.03845 35.8238C9.32645 36.0051 9.53445 36.2718 9.66245 36.6238C9.77979 36.2771 9.97979 36.0131 10.2625 35.8318C10.5505 35.6451 10.8758 35.5518 11.2385 35.5518Z" fill="#989898"/>
<path d="M0.384003 37.8079C0.384003 37.3599 0.472003 36.9679 0.648003 36.6319C0.829336 36.2905 1.07734 36.0292 1.392 35.8479C1.712 35.6612 2.072 35.5679 2.472 35.5679C2.888 35.5679 3.24534 35.6639 3.544 35.8559C3.848 36.0479 4.06667 36.2932 4.2 36.5919V35.6319H4.76V39.9999H4.2V39.0319C4.06134 39.3305 3.84 39.5785 3.536 39.7759C3.23734 39.9679 2.88 40.0639 2.464 40.0639C2.06934 40.0639 1.712 39.9705 1.392 39.7839C1.07734 39.5972 0.829336 39.3332 0.648003 38.9919C0.472003 38.6505 0.384003 38.2559 0.384003 37.8079ZM4.2 37.8159C4.2 37.4639 4.128 37.1545 3.984 36.8879C3.84 36.6212 3.64267 36.4159 3.392 36.2719C3.14667 36.1279 2.87467 36.0559 2.576 36.0559C2.26667 36.0559 1.98934 36.1252 1.744 36.2639C1.49867 36.4025 1.304 36.6052 1.16 36.8719C1.02134 37.1332 0.952003 37.4452 0.952003 37.8079C0.952003 38.1652 1.02134 38.4799 1.16 38.7519C1.304 39.0185 1.49867 39.2239 1.744 39.3679C1.98934 39.5065 2.26667 39.5759 2.576 39.5759C2.87467 39.5759 3.14667 39.5039 3.392 39.3599C3.64267 39.2159 3.84 39.0105 3.984 38.7439C4.128 38.4772 4.2 38.1679 4.2 37.8159Z" fill="#989898"/>
<line x1="8.74228e-08" y1="30" x2="137" y2="30" stroke="#FFD600" stroke-width="2"/>
<circle cx="27" cy="20" r="4" fill="#FFD600"/>
<defs>
<clipPath id="clip0_238_64">
<rect width="20" height="24" fill="white"/>
</clipPath>
</defs>
</svg>
