<?xml version="1.0" encoding="utf-8"?>
<!-- Generator: Adobe Illustrator 26.5.0, SVG Export Plug-In . SVG Version: 6.00 Build 0)  -->
<svg version="1.1" id="Layer_1" xmlns="http://www.w3.org/2000/svg" xmlns:xlink="http://www.w3.org/1999/xlink" x="0px" y="0px"
	 viewBox="0 0 110.4 32.6" style="enable-background:new 0 0 110.4 32.6;" xml:space="preserve">
<style type="text/css">
	.st0{fill:#1F212D;}
	.st1{fill:#4A9E41;}
	.st2{fill:url(#Path_30_00000059311949020285938030000003784242826377729689_);}
	.st3{fill:url(#Path_31_00000181049847442528307520000012377581409894609832_);}
	.st4{fill:#56B14D;}
	.st5{fill:url(#Path_33_00000056400575602459929420000008157058307696366503_);}
</style>
<g id="Text" transform="translate(0 775.013)">
	<path id="Path_9" class="st0" d="M32.1-770.3c-0.3,0-0.6,0-0.9,0c-0.3,0-0.5,0.1-0.8,0.2c-0.1,0-0.2,0.1-0.3,0.2
		c-0.1,0.1-0.1,0.2-0.1,0.3v6c0,0.3,0.2,0.4,0.5,0.4c0.1,0,0.2,0,0.3,0s0.2,0,0.2,0v-2.4h1.1c1,0,1.6-0.2,2.1-0.6
		c0.5-0.4,0.7-1,0.7-1.7s-0.2-1.2-0.6-1.6C33.8-770.1,33.1-770.3,32.1-770.3z M33.5-766.9c-0.3,0.3-0.8,0.4-1.4,0.4H31v-2.9
		c0.2,0,0.3,0,0.5-0.1c0.2,0,0.4,0,0.6,0c0.6,0,1.1,0.1,1.4,0.3c0.3,0.2,0.5,0.6,0.5,1.1C34-767.5,33.8-767.2,33.5-766.9L33.5-766.9
		z M38.4-768.7c-0.4,0-0.8,0-1.1,0.2c-0.3,0.1-0.5,0.2-0.8,0.3c-0.1,0.1-0.2,0.2-0.3,0.3s-0.1,0.3-0.1,0.4v3.8
		c0,0.3,0.2,0.4,0.5,0.4c0.1,0,0.2,0,0.3,0s0.1,0,0.2,0v-4.2c0.2-0.1,0.4-0.2,0.6-0.3c0.3-0.1,0.6-0.1,0.9-0.1c0.1,0,0.2,0,0.3,0
		s0.2,0,0.3,0c0,0,0.1-0.1,0.1-0.2c0-0.1,0-0.2,0-0.2C39.3-768.5,39-768.7,38.4-768.7L38.4-768.7z M40.9-770.7c-0.2,0-0.3,0-0.4,0.2
		c-0.2,0.2-0.2,0.6,0,0.8c0.1,0.1,0.3,0.2,0.4,0.2c0.3,0,0.6-0.2,0.6-0.5C41.5-770.5,41.2-770.7,40.9-770.7L40.9-770.7L40.9-770.7z
		 M40.9-768.6c-0.1,0-0.2,0-0.3,0s-0.1,0-0.2,0v4.8c0,0.3,0.2,0.4,0.5,0.4c0.1,0,0.2,0,0.3,0s0.1,0,0.2,0v-4.8
		C41.4-768.5,41.2-768.6,40.9-768.6L40.9-768.6z M47-768.7c-0.2,0-0.3,0-0.4,0.1c-0.2,0.7-0.4,1.4-0.7,2.2c-0.3,0.7-0.5,1.5-0.8,2.2
		l0,0c0-0.1-0.1-0.3-0.2-0.5s-0.2-0.4-0.2-0.6c-0.1-0.2-0.2-0.4-0.2-0.6c-0.1-0.2-0.1-0.3-0.2-0.5l-0.7-2c0-0.1-0.1-0.2-0.2-0.3
		s-0.2-0.1-0.3-0.1c-0.1,0-0.2,0-0.3,0.1c-0.1,0-0.2,0.1-0.2,0.2c0.1,0.2,0.2,0.5,0.3,0.8c0.1,0.3,0.2,0.6,0.3,0.9
		c0.1,0.3,0.2,0.6,0.4,1c0.1,0.3,0.3,0.6,0.4,0.9c0.1,0.3,0.2,0.5,0.3,0.8c0.1,0.2,0.2,0.4,0.3,0.5c0.1,0.2,0.3,0.2,0.5,0.2
		c0.1,0,0.2,0,0.3,0c0.1,0,0.2,0,0.2-0.1c0.1-0.2,0.3-0.5,0.4-0.8s0.3-0.6,0.4-1c0.2-0.3,0.3-0.7,0.4-1s0.2-0.6,0.3-0.9
		c0.1-0.3,0.2-0.5,0.2-0.7s0.1-0.3,0.1-0.4c0-0.1,0-0.2-0.1-0.3C47.3-768.6,47.1-768.7,47-768.7L47-768.7z M52-768.2
		c-0.4-0.3-0.9-0.5-1.6-0.5c-0.3,0-0.6,0-0.9,0.1c-0.2,0-0.5,0.1-0.7,0.2c-0.1,0-0.2,0.1-0.3,0.2c0,0.1-0.1,0.2-0.1,0.3
		s0,0.2,0.1,0.2c0,0.1,0.1,0.1,0.2,0.2c0.2-0.1,0.5-0.2,0.8-0.3s0.6-0.2,0.9-0.2c0.4,0,0.7,0.1,0.9,0.3c0.2,0.2,0.3,0.5,0.3,0.8v0.3
		l-1.6,0.2c-0.6,0.1-1,0.2-1.4,0.5c-0.3,0.2-0.5,0.6-0.5,1.1s0.2,0.9,0.6,1.2s1,0.4,1.6,0.4c0.3,0,0.7,0,1-0.1s0.5-0.2,0.7-0.3
		c0.1-0.1,0.2-0.2,0.3-0.2c0.1-0.1,0.1-0.2,0.1-0.4v-2.7C52.6-767.5,52.4-767.9,52-768.2L52-768.2z M51.7-764.2
		c-0.2,0.1-0.3,0.2-0.5,0.2c-0.3,0.1-0.5,0.1-0.8,0.1c-0.5,0-0.8-0.1-1-0.2c-0.2-0.2-0.3-0.4-0.3-0.6c0-0.2,0.1-0.5,0.3-0.6
		c0.2-0.2,0.5-0.2,0.9-0.3l1.4-0.2V-764.2z M57-764.1c-0.1,0.1-0.3,0.1-0.4,0.2c-0.2,0-0.3,0.1-0.4,0.1c-0.3,0-0.5,0-0.7-0.2
		c-0.2-0.1-0.3-0.3-0.3-0.6v-2.9h1.6c0.2,0,0.3-0.1,0.3-0.4c0-0.1,0-0.2,0-0.2s0-0.1-0.1-0.2h-1.9v-1.3c0-0.3-0.2-0.4-0.5-0.4
		c-0.1,0-0.2,0-0.3,0c-0.1,0-0.1,0-0.2,0v5.4c0,0.5,0.2,0.9,0.5,1.2c0.3,0.2,0.8,0.3,1.3,0.3c0.3,0,0.6,0,0.8-0.2
		c0.2-0.1,0.3-0.2,0.3-0.4c0-0.1,0-0.2,0-0.2C57.1-764,57-764.1,57-764.1z M62.7-766c0.1-0.1,0.1-0.2,0.1-0.3c0-0.3,0-0.6-0.2-0.9
		c-0.1-0.3-0.3-0.5-0.5-0.7s-0.5-0.4-0.7-0.5c-0.3-0.1-0.6-0.2-1-0.2c-0.3,0-0.7,0.1-1,0.2s-0.6,0.3-0.8,0.5
		c-0.2,0.2-0.4,0.5-0.5,0.8c-0.1,0.4-0.2,0.8-0.2,1.1c0,0.9,0.3,1.6,0.8,2.1s1.2,0.7,2.1,0.7c0.2,0,0.5,0,0.7-0.1
		c0.2,0,0.4-0.1,0.6-0.2c0.2-0.1,0.3-0.2,0.4-0.3s0.2-0.2,0.2-0.3c0-0.2-0.1-0.3-0.3-0.4c-0.2,0.2-0.4,0.3-0.6,0.3
		c-0.3,0.1-0.6,0.2-0.9,0.2c-1.1,0-1.8-0.5-1.9-1.5l3.5-0.5C62.5-765.9,62.7-765.9,62.7-766z M58.9-766.1c0-0.6,0.2-1.1,0.5-1.4
		c0.3-0.3,0.7-0.5,1.1-0.5c0.5,0,0.8,0.2,1.1,0.4c0.3,0.3,0.4,0.6,0.4,1L58.9-766.1z"/>
	<path id="Path_10" class="st1" d="M67.3-770.3c-0.1,0-0.2,0-0.3,0c-0.1,0-0.1,0-0.2,0v6.5c0,0.3,0.2,0.4,0.5,0.4c0.1,0,0.2,0,0.3,0
		c0.1,0,0.1,0,0.2,0v-6.5C67.8-770.1,67.6-770.3,67.3-770.3z M72-768.7c-0.4,0-0.7,0-1.1,0.2c-0.3,0.1-0.5,0.2-0.8,0.3
		c-0.1,0.1-0.2,0.2-0.3,0.3c-0.1,0.1-0.1,0.3-0.1,0.4v3.8c0,0.3,0.2,0.4,0.5,0.4c0.1,0,0.2,0,0.3,0c0.1,0,0.1,0,0.2,0v-4.2
		c0.2-0.1,0.4-0.2,0.6-0.3c0.3-0.1,0.5-0.1,0.8-0.1c0.4,0,0.7,0.1,1,0.3c0.2,0.2,0.3,0.5,0.3,0.9v3c0,0.3,0.2,0.4,0.5,0.4
		c0.1,0,0.2,0,0.2,0c0.1,0,0.1,0,0.2,0v-3.4c0-0.6-0.2-1.1-0.6-1.4C73.2-768.5,72.7-768.7,72-768.7L72-768.7z M78.6-764.1
		c-0.1,0.1-0.3,0.1-0.4,0.2c-0.2,0-0.3,0.1-0.4,0.1c-0.3,0-0.5,0-0.7-0.2c-0.2-0.1-0.3-0.3-0.3-0.6v-2.9h1.6c0.2,0,0.3-0.1,0.3-0.4
		c0-0.1,0-0.2,0-0.2s0-0.1-0.1-0.2h-1.8v-1.3c0-0.3-0.2-0.4-0.5-0.4c-0.1,0-0.2,0-0.3,0c-0.1,0-0.1,0-0.2,0v5.4
		c0,0.5,0.2,0.9,0.5,1.2c0.3,0.2,0.8,0.3,1.3,0.3c0.3,0,0.6,0,0.8-0.2c0.2-0.1,0.3-0.2,0.3-0.4c0-0.1,0-0.2,0-0.2
		C78.7-764,78.7-764.1,78.6-764.1L78.6-764.1z M83.8-768c-0.2-0.2-0.5-0.4-0.7-0.5c-0.3-0.1-0.6-0.2-1-0.2c-0.3,0-0.7,0.1-1,0.2
		c-0.3,0.1-0.6,0.3-0.8,0.5c-0.2,0.2-0.4,0.5-0.5,0.8c-0.1,0.4-0.2,0.8-0.2,1.1c0,0.9,0.3,1.6,0.8,2.1s1.2,0.7,2.1,0.7
		c0.2,0,0.5,0,0.7-0.1c0.2,0,0.4-0.1,0.6-0.2c0.2-0.1,0.3-0.2,0.4-0.3s0.2-0.2,0.2-0.3c0-0.2-0.1-0.3-0.3-0.4
		c-0.2,0.2-0.4,0.3-0.6,0.3c-0.3,0.1-0.6,0.2-0.9,0.2c-1.1,0-1.8-0.5-1.9-1.5l3.5-0.5c0.1,0,0.2,0,0.3-0.1c0.1-0.1,0.1-0.2,0.1-0.3
		c0-0.3,0-0.6-0.2-0.9C84.2-767.6,84-767.8,83.8-768z M80.5-766.1c0-0.6,0.2-1.1,0.5-1.4c0.3-0.3,0.7-0.5,1.1-0.5
		c0.5,0,0.8,0.2,1.1,0.4c0.3,0.3,0.4,0.6,0.4,1L80.5-766.1z M88.2-768.7c-0.4,0-0.8,0-1.1,0.2c-0.3,0.1-0.5,0.2-0.8,0.3
		c-0.1,0.1-0.2,0.2-0.3,0.3c-0.1,0.1-0.1,0.3-0.1,0.4v3.8c0,0.3,0.2,0.4,0.5,0.4c0.1,0,0.2,0,0.3,0c0.1,0,0.1,0,0.2,0v-4.2
		c0.2-0.1,0.4-0.2,0.6-0.3c0.3-0.1,0.6-0.1,0.9-0.1c0.1,0,0.2,0,0.4,0c0.1,0,0.2,0,0.3,0c0,0,0.1-0.1,0.1-0.2c0-0.1,0-0.2,0-0.2
		C89.1-768.5,88.8-768.7,88.2-768.7L88.2-768.7z M92.4-768.7c-0.4,0-0.7,0-1.1,0.2c-0.3,0.1-0.5,0.2-0.8,0.3
		c-0.1,0.1-0.2,0.2-0.3,0.3c-0.1,0.1-0.1,0.3-0.1,0.4v3.8c0,0.3,0.2,0.4,0.5,0.4c0.1,0,0.2,0,0.3,0c0.1,0,0.1,0,0.2,0v-4.2
		c0.2-0.1,0.4-0.2,0.6-0.3c0.3-0.1,0.5-0.1,0.8-0.1c0.4,0,0.7,0.1,1,0.3c0.2,0.2,0.3,0.5,0.3,0.9v3c0,0.3,0.2,0.4,0.5,0.4
		c0.1,0,0.2,0,0.2,0c0.1,0,0.1,0,0.2,0v-3.4c0-0.6-0.2-1.1-0.6-1.4C93.6-768.5,93.1-768.7,92.4-768.7L92.4-768.7z M100.2-768
		c-0.2-0.2-0.5-0.4-0.7-0.5c-0.3-0.1-0.6-0.2-1-0.2c-0.3,0-0.7,0.1-1,0.2c-0.3,0.1-0.6,0.3-0.8,0.5c-0.2,0.2-0.4,0.5-0.5,0.8
		c-0.1,0.4-0.2,0.8-0.2,1.1c0,0.9,0.3,1.6,0.8,2.1s1.2,0.7,2.1,0.7c0.2,0,0.5,0,0.7-0.1c0.2,0,0.4-0.1,0.6-0.2
		c0.2-0.1,0.3-0.2,0.4-0.3s0.2-0.2,0.2-0.3c0-0.2-0.1-0.3-0.3-0.4c-0.2,0.2-0.4,0.3-0.6,0.3c-0.3,0.1-0.6,0.2-0.9,0.2
		c-1.1,0-1.8-0.5-1.9-1.5l3.5-0.5c0.1,0,0.2,0,0.3-0.1c0.1-0.1,0.1-0.2,0.1-0.3c0-0.3,0-0.6-0.2-0.9
		C100.5-767.6,100.4-767.8,100.2-768L100.2-768z M96.9-766.1c0-0.6,0.2-1.1,0.5-1.4c0.3-0.3,0.7-0.5,1.1-0.5c0.5,0,0.8,0.2,1.1,0.4
		c0.3,0.3,0.4,0.6,0.4,1L96.9-766.1z M105-764c0-0.1-0.1-0.1-0.1-0.2c-0.1,0.1-0.3,0.1-0.4,0.2c-0.2,0-0.3,0.1-0.4,0.1
		c-0.3,0-0.5,0-0.7-0.2c-0.2-0.1-0.3-0.3-0.3-0.6v-2.9h1.6c0.2,0,0.3-0.1,0.3-0.4c0-0.1,0-0.2,0-0.2s0-0.1-0.1-0.2H103v-1.3
		c0-0.3-0.2-0.4-0.5-0.4c-0.1,0-0.2,0-0.3,0c-0.1,0-0.1,0-0.2,0v5.4c0,0.5,0.2,0.9,0.5,1.2c0.3,0.2,0.8,0.3,1.3,0.3
		c0.3,0,0.6,0,0.8-0.2c0.2-0.1,0.3-0.2,0.3-0.4C105-763.8,105-763.9,105-764L105-764z"/>
	<g id="Group_76" transform="translate(0 107.11)">
		<path id="Path_8" class="st0" d="M40.5-859.3c-0.4-1.2-0.8-2.3-1.2-3.4c-0.4-1.1-0.8-2.1-1.1-3c-0.1-0.3-0.4-0.5-0.7-0.6
			c-0.4-0.1-0.8-0.2-1.2-0.2c-0.3,0-0.6,0-1,0.1c-0.2,0-0.5,0.2-0.7,0.3c-0.3,0.8-0.6,1.7-1.1,2.8c-0.4,1.1-0.8,2.2-1.2,3.3
			s-0.8,2.2-1.1,3.2s-0.6,1.8-0.8,2.5c-0.1,0.2-0.2,0.4-0.2,0.5s-0.1,0.3-0.1,0.5c0,0.3,0.1,0.6,0.4,0.8s0.6,0.3,1,0.3
			c0.2,0,0.4,0,0.5,0c0.2,0,0.3-0.1,0.4-0.2l1.1-3.5h5.6l0.9,2.6c0.1,0.4,0.3,0.6,0.5,0.8s0.5,0.2,0.9,0.2c0.3,0,0.5,0,0.8-0.2
			c0.2-0.1,0.4-0.2,0.5-0.4c-0.3-0.9-0.6-1.9-1-3.1C41.2-857,40.9-858.2,40.5-859.3z M34-857.9c0.2-0.5,0.4-1.1,0.6-1.7
			c0.2-0.6,0.4-1.2,0.6-1.8c0.2-0.6,0.4-1.1,0.6-1.6c0.2-0.5,0.3-1,0.5-1.4h0.1c0.1,0.3,0.2,0.8,0.4,1.3s0.3,1,0.5,1.6
			s0.4,1.1,0.6,1.8c0.2,0.6,0.4,1.2,0.6,1.8L34-857.9L34-857.9z M54.7-855.2c-0.5,0.3-0.9,0.5-1.4,0.7c-0.6,0.2-1.3,0.3-1.9,0.3
			c-1.4,0-2.6-0.5-3.4-1.3c-0.8-0.9-1.3-2.2-1.3-3.9c0-0.8,0.1-1.5,0.3-2.3c0.2-0.6,0.5-1.2,1-1.6c0.4-0.5,0.9-0.8,1.4-1
			c0.6-0.2,1.2-0.3,1.8-0.3c0.8,0,1.4,0.1,1.9,0.3s0.9,0.5,1.4,0.7c0.2-0.1,0.4-0.3,0.5-0.4c0.3-0.4,0.3-1-0.1-1.4
			c-0.2-0.3-0.5-0.5-0.9-0.6c-0.4-0.2-0.9-0.3-1.3-0.5c-0.6-0.1-1.2-0.2-1.8-0.2c-0.9,0-1.8,0.2-2.6,0.5c-0.8,0.3-1.6,0.8-2.2,1.4
			c-0.6,0.6-1.1,1.4-1.5,2.3c-0.4,0.9-0.5,2-0.5,3.2s0.2,2.3,0.5,3.2c0.3,0.8,0.8,1.6,1.5,2.3c0.6,0.6,1.4,1.1,2.2,1.3
			c0.9,0.3,1.8,0.5,2.7,0.5c0.9,0,1.6-0.1,2.2-0.3c0.5-0.1,1-0.3,1.4-0.6c0.2-0.1,0.4-0.3,0.6-0.5c0.1-0.2,0.2-0.4,0.2-0.6
			c0-0.2-0.1-0.5-0.2-0.7C55-854.9,54.9-855.1,54.7-855.2L54.7-855.2z M67.8-855.2c-0.5,0.3-0.9,0.5-1.4,0.7
			c-0.6,0.2-1.3,0.3-1.9,0.3c-1.4,0-2.6-0.5-3.4-1.3c-0.8-0.9-1.3-2.2-1.3-3.9c0-0.8,0.1-1.5,0.3-2.3c0.2-0.6,0.5-1.2,1-1.6
			c0.4-0.5,0.9-0.8,1.4-1c0.6-0.2,1.2-0.3,1.8-0.3c0.8,0,1.4,0.1,1.9,0.3s0.9,0.5,1.4,0.7c0.2-0.1,0.4-0.3,0.5-0.4
			c0.3-0.4,0.3-1-0.1-1.4c-0.2-0.3-0.5-0.5-0.9-0.6c-0.4-0.2-0.9-0.3-1.3-0.5c-0.6-0.1-1.2-0.2-1.8-0.2c-0.9,0-1.8,0.2-2.6,0.5
			c-0.8,0.3-1.6,0.8-2.2,1.4c-0.6,0.6-1.1,1.4-1.5,2.3c-0.4,0.9-0.5,2-0.5,3.2s0.2,2.3,0.5,3.2c0.3,0.8,0.8,1.6,1.5,2.3
			c0.6,0.6,1.4,1.1,2.2,1.3c0.9,0.3,1.8,0.5,2.7,0.5c0.9,0,1.6-0.1,2.2-0.3c0.5-0.1,1-0.3,1.4-0.6c0.2-0.1,0.4-0.3,0.6-0.5
			c0.1-0.2,0.2-0.4,0.2-0.6c0-0.2-0.1-0.5-0.2-0.7C68.1-854.9,68-855.1,67.8-855.2L67.8-855.2z M80.4-854.5h-6.6v-4.2H79
			c0.2,0,0.5-0.1,0.6-0.3c0.2-0.2,0.2-0.4,0.2-0.8c0-0.2,0-0.4-0.1-0.5c0-0.2-0.1-0.3-0.2-0.4h-5.8v-3.8h5.9c0.3,0,0.5-0.1,0.6-0.3
			c0.2-0.2,0.2-0.5,0.2-0.8c0-0.2,0-0.4-0.1-0.5c0-0.2-0.1-0.3-0.2-0.4h-7.6c-0.3,0-0.7,0.1-1,0.3c-0.3,0.3-0.4,0.6-0.4,1v11.3
			c0,0.7,0.5,1.3,1.2,1.3c0,0,0.1,0,0.2,0h7.1c0.2,0,0.5-0.1,0.6-0.3c0.2-0.2,0.2-0.5,0.2-0.8c0-0.2,0-0.4-0.1-0.5
			C80.5-854.2,80.5-854.3,80.4-854.5z M88.8-860.6l-1.3-0.4c-0.7-0.2-1.3-0.5-1.6-0.8c-0.3-0.3-0.5-0.7-0.5-1.1c0-0.5,0.2-1,0.7-1.3
			s1.1-0.5,1.9-0.5c0.7,0,1.4,0.1,2.1,0.3c0.5,0.2,1,0.4,1.5,0.8c0.2-0.1,0.3-0.3,0.5-0.5c0.1-0.2,0.2-0.4,0.2-0.7s-0.1-0.6-0.3-0.8
			c-0.3-0.3-0.6-0.5-0.9-0.6c-0.5-0.2-0.9-0.3-1.4-0.4c-0.6-0.1-1.1-0.2-1.8-0.2c-1.5,0-2.7,0.3-3.6,1s-1.3,1.6-1.3,2.9
			c0,0.5,0.1,1,0.2,1.4c0.2,0.4,0.4,0.8,0.7,1.1c0.3,0.3,0.7,0.6,1.1,0.8c0.5,0.2,1,0.4,1.4,0.6l1.7,0.5c0.8,0.2,1.3,0.5,1.7,0.8
			c0.3,0.3,0.5,0.8,0.5,1.3c0,0.6-0.2,1.1-0.7,1.5s-1.2,0.6-2.1,0.6s-1.6-0.2-2.3-0.5c-0.5-0.2-1.1-0.6-1.5-1
			c-0.2,0.1-0.5,0.3-0.6,0.5c-0.2,0.2-0.3,0.5-0.3,0.8s0.1,0.6,0.3,0.8c0.3,0.3,0.6,0.5,1,0.7c0.5,0.2,1,0.4,1.5,0.5
			c0.6,0.1,1.3,0.2,1.9,0.2c0.8,0,1.5-0.1,2.2-0.3c0.6-0.2,1.2-0.5,1.7-0.8c0.4-0.3,0.8-0.8,1-1.3s0.3-1.1,0.3-1.7
			c0-1.1-0.3-2.1-1.1-2.7C91.1-859.7,90.1-860.2,88.8-860.6L88.8-860.6z M104-859c-0.7-0.6-1.7-1.2-3-1.6l-1.3-0.4
			c-0.7-0.2-1.3-0.5-1.6-0.8c-0.3-0.3-0.5-0.7-0.5-1.1c0-0.5,0.2-1,0.7-1.3s1.1-0.5,1.9-0.5c0.7,0,1.4,0.1,2.1,0.3
			c0.5,0.2,1,0.4,1.5,0.8c0.2-0.1,0.3-0.3,0.5-0.5c0.1-0.2,0.2-0.4,0.2-0.7s-0.1-0.6-0.3-0.8c-0.3-0.3-0.6-0.5-0.9-0.6
			c-0.5-0.2-0.9-0.3-1.4-0.4c-0.6-0.1-1.1-0.2-1.8-0.2c-1.5,0-2.7,0.3-3.6,1s-1.3,1.6-1.3,2.9c0,0.5,0.1,1,0.2,1.4
			c0.2,0.4,0.4,0.8,0.7,1.1c0.3,0.3,0.7,0.6,1.1,0.8c0.5,0.2,1,0.4,1.4,0.6l1.7,0.5c0.8,0.2,1.3,0.5,1.7,0.8
			c0.3,0.3,0.5,0.8,0.5,1.3c0,0.6-0.2,1.1-0.7,1.5s-1.2,0.6-2.1,0.6s-1.6-0.2-2.3-0.5c-0.5-0.2-1.1-0.6-1.5-1
			c-0.2,0.1-0.5,0.3-0.6,0.5c-0.2,0.2-0.3,0.5-0.3,0.8s0.1,0.6,0.3,0.8c0.3,0.3,0.6,0.5,1,0.7c0.5,0.2,1,0.4,1.5,0.5
			c0.6,0.1,1.3,0.2,1.9,0.2c0.8,0,1.5-0.1,2.2-0.3c0.6-0.2,1.2-0.5,1.7-0.8c0.4-0.3,0.8-0.8,1-1.3s0.3-1.1,0.3-1.7
			C105-857.4,104.7-858.3,104-859L104-859z"/>
		<path id="Path_34" class="st0" d="M106.8-865c0-0.2,0-0.5,0.1-0.7s0.2-0.4,0.4-0.6c0.2-0.2,0.3-0.3,0.6-0.4c0.5-0.2,1-0.2,1.5,0
			c0.2,0.1,0.4,0.2,0.6,0.4s0.3,0.3,0.4,0.6c0.2,0.5,0.2,1,0,1.4s-0.5,0.8-1,1s-1,0.2-1.5,0c-0.4-0.2-0.8-0.5-1-1
			C106.9-864.6,106.8-864.8,106.8-865z M107.2-865c0,0.2,0,0.4,0.1,0.6c0.1,0.2,0.2,0.3,0.3,0.5c0.1,0.1,0.3,0.2,0.5,0.3
			c0.4,0.2,0.8,0.2,1.1,0c0.2-0.1,0.3-0.2,0.5-0.3c0.1-0.1,0.2-0.3,0.3-0.5c0.2-0.4,0.2-0.8,0-1.1c-0.1-0.2-0.2-0.3-0.3-0.5
			c-0.1-0.1-0.3-0.2-0.5-0.3c-0.4-0.2-0.8-0.2-1.1,0c-0.2,0.1-0.3,0.2-0.5,0.3c-0.1,0.1-0.2,0.3-0.3,0.5
			C107.2-865.4,107.2-865.2,107.2-865L107.2-865z M108.4-864.8v0.6c-0.1,0-0.1,0-0.2,0c0,0-0.1,0-0.2,0c0,0,0-0.1,0-0.2v-1.3
			c0-0.1,0-0.1,0.2-0.1c0.1,0,0.1,0,0.2,0s0.1,0,0.2,0c0.2,0,0.4,0,0.5,0.2c0.2,0.2,0.3,0.5,0.1,0.7c-0.1,0.1-0.2,0.2-0.3,0.2
			l0.4,0.5c0,0,0,0.1-0.1,0.1c0,0-0.1,0-0.2,0c-0.1,0-0.2-0.1-0.2-0.2L108.4-864.8L108.4-864.8z M108.7-865.1c0.2,0,0.3-0.1,0.3-0.3
			c0-0.1,0-0.1-0.1-0.2c-0.1,0-0.2-0.1-0.2-0.1h-0.1h-0.1v0.5L108.7-865.1z"/>
	</g>
</g>
<g id="Lock" transform="translate(98.105)">
	
		<linearGradient id="Path_30_00000067946744216771839570000009383739010017911226_" gradientUnits="userSpaceOnUse" x1="-211.8313" y1="355.6407" x2="-211.8311" y2="355.5968" gradientTransform="matrix(427.301 0 0 -251.422 90429.6562 89416.5)">
		<stop  offset="0" style="stop-color:#56B14D"/>
		<stop  offset="0.541" style="stop-color:#4A9E41"/>
		<stop  offset="1" style="stop-color:#3E7F34"/>
	</linearGradient>
	<path id="Path_30" style="fill:url(#Path_30_00000067946744216771839570000009383739010017911226_);" d="M-92.5,11.7V10
		c0-3.5,2.9-6.4,6.4-6.4s6.4,2.9,6.4,6.4v1.7h3.4V10c0-5.4-4.3-9.7-9.7-9.7s-9.7,4.3-9.7,9.7v1.7H-92.5z"/>
	
		<linearGradient id="Path_31_00000169542287829260474740000015924948105336257714_" gradientUnits="userSpaceOnUse" x1="-211.6338" y1="356.9356" x2="-211.6338" y2="356.8907" gradientTransform="matrix(530.433 0 0 -456.7701 112171.4375 163049.1094)">
		<stop  offset="0" style="stop-color:#56B14D"/>
		<stop  offset="1" style="stop-color:#4A9E41"/>
	</linearGradient>
	<path id="Path_31" style="fill:url(#Path_31_00000169542287829260474740000015924948105336257714_);" d="M-74.7,13.6
		c0-1.1-0.9-2-2-2H-81c-0.6,0-1.1,0.2-1.5,0.7h-7.1c-0.4-0.4-0.9-0.7-1.5-0.7h-4.3c-1.1,0-2,0.9-2,2l0,0c-0.4,0.6-0.7,1.3-0.7,2v12
		c0,1.5,1,2.8,2.4,3.2c0.2,0.9,1,1.5,1.9,1.5h3c0.8,0,1.6-0.5,1.9-1.3h5.6c0.3,0.8,1,1.3,1.9,1.3h3c0.9,0,1.7-0.6,1.9-1.5
		c1.4-0.4,2.4-1.7,2.4-3.2v-12C-74.1,14.9-74.3,14.2-74.7,13.6z M-84.7,21.8c-0.1,0.1-0.2,0.2-0.2,0.3l0.8,4.2
		c0,0.2-0.1,0.3-0.3,0.4c0,0,0,0-0.1,0h-3.3c-0.2,0-0.3-0.2-0.3-0.3c0,0,0,0,0-0.1l0.8-4.2c0-0.2,0-0.3-0.2-0.3
		c-1.3-0.8-1.7-2.4-1-3.7c0.8-1.3,2.4-1.7,3.7-1c1.3,0.8,1.7,2.4,1,3.7C-84,21.2-84.3,21.5-84.7,21.8L-84.7,21.8z"/>
	<path id="Path_32" class="st4" d="M-87.6,7.9c0-0.6-0.5-1.1-1.1-1.1s-1.1,0.5-1.1,1.1S-89.3,9-88.7,9l0,0
		C-88.1,9-87.6,8.5-87.6,7.9z M-83.5,6.9c-0.6,0-1.1,0.5-1.1,1.1c0,0.6,0.5,1.1,1.1,1.1c0.6-0.1,1.1-0.6,1.1-1.1l0,0
		C-82.4,7.3-82.9,6.9-83.5,6.9L-83.5,6.9z M-84.7,9.7c0,0-0.6,0.6-1.4,0.6s-1.4-0.6-1.4-0.6c-0.1-0.1-0.3-0.1-0.5,0
		c-0.1,0.1-0.1,0.3,0,0.5c0,0,0.8,0.8,1.9,0.8s1.9-0.7,1.9-0.8c0.1-0.1,0.1-0.3,0-0.5C-84.3,9.6-84.5,9.6-84.7,9.7L-84.7,9.7z"/>
	
		<linearGradient id="Path_33_00000177446402734383183740000002541993423977518260_" gradientUnits="userSpaceOnUse" x1="-213.4566" y1="356.9055" x2="-213.4566" y2="356.9503" gradientTransform="matrix(164.4161 0 0 -265.223 35009.5508 94687.2422)">
		<stop  offset="0" style="stop-color:#56B14D"/>
		<stop  offset="1" style="stop-color:#4A9E41"/>
	</linearGradient>
	<path id="Path_33" style="fill:url(#Path_33_00000177446402734383183740000002541993423977518260_);" d="M-83.8,22.3
		c1.6-1.3,1.9-3.6,0.6-5.3c-0.7-0.9-1.8-1.4-2.9-1.4c-0.2,0-0.3,0-0.5,0c-2.1,0.2-3.5,2.1-3.3,4.2c0.1,1,0.6,1.9,1.4,2.5l-0.7,3.8
		c-0.1,0.7,0.3,1.4,1.1,1.6c0.1,0,0.2,0,0.2,0h3.3c0.8,0,1.3-0.6,1.3-1.3c0-0.1,0-0.2,0-0.2L-83.8,22.3z M-84.5,26.7h-3.3
		c-0.2,0-0.3-0.2-0.3-0.3c0,0,0,0,0-0.1l0.8-4.2c0-0.2,0-0.3-0.2-0.3c-1.3-0.8-1.7-2.4-1-3.7c0.8-1.3,2.4-1.7,3.7-1
		c1.3,0.8,1.7,2.4,1,3.7c-0.2,0.4-0.6,0.7-1,1c-0.1,0.1-0.2,0.2-0.2,0.3l0.8,4.2C-84.2,26.5-84.3,26.6-84.5,26.7
		C-84.4,26.7-84.5,26.7-84.5,26.7L-84.5,26.7z"/>
</g>
</svg>
