<svg xmlns="http://www.w3.org/2000/svg" viewBox="0 0 874.62 163.64"><defs><style>.cls-1{fill:#5cb85c;}</style></defs><g id="Layer_2" data-name="Layer 2"><g id="Layer_1-2" data-name="Layer 1"><path class="cls-1" d="M131.62,0a18.31,18.31,0,0,0-18.3,18.3v.6L33.52,44.6A18.42,18.42,0,0,0,8,39.6a18.39,18.39,0,0,0,10.8,33.5,15.93,15.93,0,0,0,5.6-1.1l52.4,66.2a18.3,18.3,0,1,0,28.7-6.8l27.8-95.2a17.84,17.84,0,0,0,16.6-17.9A18.31,18.31,0,0,0,131.62,0ZM93.42,126.9a18.25,18.25,0,0,0-8.2,1.9L34,64.1a16.85,16.85,0,0,0,2.6-7.6l81.6-26.1A35.76,35.76,0,0,0,121,33Z"/><path class="cls-1" d="M260.22,63.7a27.39,27.39,0,0,0-10.3-23.3,48.22,48.22,0,0,0-28.8-8h-26.5V133.6h13.7V96.4h12.6a46.28,46.28,0,0,0,28.6-8A28.61,28.61,0,0,0,260.22,63.7Zm-21.1,17a31.72,31.72,0,0,1-18.5,4.8h-12.2v-42h12.4a28.74,28.74,0,0,1,18.3,4.8,18.42,18.42,0,0,1,6.3,15.6A19.61,19.61,0,0,1,239.12,80.7Z"/><path class="cls-1" d="M317.12,55.5l-2.5,13.2a26.61,26.61,0,0,0-6.7-.8,13.68,13.68,0,0,0-11.6,5.3A41.18,41.18,0,0,0,289,89.6v43.9h-13.2V56.2h11.7l1.3,15.6A28,28,0,0,1,297,59a18.14,18.14,0,0,1,12-4.6,33.73,33.73,0,0,1,8.1,1.1Z"/><path class="cls-1" d="M382.62,65.4a32.42,32.42,0,0,0-25.4-11.5,33,33,0,0,0-18.7,5.2,31.25,31.25,0,0,0-11.8,14.3,51.54,51.54,0,0,0-4,21.6,45.92,45.92,0,0,0,9.2,30.2,30.8,30.8,0,0,0,25.4,10.9,32.84,32.84,0,0,0,18.5-5.2,31.25,31.25,0,0,0,11.8-14.3,51.54,51.54,0,0,0,4-21.6A44.69,44.69,0,0,0,382.62,65.4Zm-25.6,59c-13.2,0-19.8-9.7-19.8-29.4.2-19.7,6.9-29.4,20-29.6,13.4,0,19.8,9.7,19.8,29.4S370.42,124.4,357,124.4Z"/><path class="cls-1" d="M452.62,130.1a30.45,30.45,0,0,1-17.4,5.3,19.72,19.72,0,0,1-15.3-5.7,22.33,22.33,0,0,1-5.5-16.4V66.7h-13.2V56.2h13.6V38.8l13.6-1.7V56.2h18.3l-1.1,10.5h-17.2v46a16,16,0,0,0,2.1,8.8,8.75,8.75,0,0,0,7.3,2.7,21.32,21.32,0,0,0,10.3-3.1l4.5,9Z"/><path class="cls-1" d="M518.82,65.4a32.42,32.42,0,0,0-25.4-11.5,33,33,0,0,0-18.7,5.2,31.25,31.25,0,0,0-11.8,14.3,51.54,51.54,0,0,0-4,21.6,43.82,43.82,0,0,0,9.2,30.2,30.8,30.8,0,0,0,25.4,10.9,32.84,32.84,0,0,0,18.5-5.2,31.25,31.25,0,0,0,11.8-14.3,51.54,51.54,0,0,0,4-21.6A43.12,43.12,0,0,0,518.82,65.4Zm-25.3,59c-13.2,0-19.8-9.7-19.8-29.4.2-19.7,6.7-29.4,19.8-29.4s19.8,9.7,19.8,29.4S506.62,124.4,493.52,124.4Z"/><path class="cls-1" d="M603,60.8a24.16,24.16,0,0,1,5.9,17.4v55.3h-13.2V80.1a17.6,17.6,0,0,0-3.1-11.6,12.42,12.42,0,0,0-9.2-3.4,19,19,0,0,0-10.9,3.4,38.36,38.36,0,0,0-8.8,10.1v55h-13.9V56.3h11.6l1.1,11.5a32.2,32.2,0,0,1,10.1-9.7A25.26,25.26,0,0,1,586,54.7a21.87,21.87,0,0,1,17,6.1Z"/><polygon class="cls-1" points="703.02 32.6 670.82 133.8 655.92 133.8 623.42 32.6 638.52 32.6 663.92 118.7 689.32 32.8 703.02 32.6"/><path class="cls-1" d="M784.52,63.7a27.39,27.39,0,0,0-10.3-23.3,48.42,48.42,0,0,0-29.2-8h-26.5V133.6h13.9V96.4h12.8a46.28,46.28,0,0,0,28.6-8A28.61,28.61,0,0,0,784.52,63.7Zm-21.4,17a31.72,31.72,0,0,1-18.5,4.8h-12.2v-42h12.4a28.74,28.74,0,0,1,18.3,4.8,18,18,0,0,1,6.5,15.6A19.75,19.75,0,0,1,763.12,80.7Z"/><path class="cls-1" d="M874.62,133.8h-18.7l-41-86.1c.6,6.7,1,13,1.3,18.7s.6,12.6.6,20.8v46.4h-13V32.6h18.1l41.6,86.1c-.2-2.5-.8-6.9-1.1-13.4-.6-6.3-.8-12.2-.8-17.6V32.5h13V133.8Z"/></g></g></svg>