<svg xmlns="http://www.w3.org/2000/svg" viewBox="0 0 870.97 182.35"><defs><style>.cls-1{fill:#168a9e;}.cls-2{fill:#0d0d0d;}</style></defs><g id="Layer_2" data-name="Layer 2"><g id="Layer_1-2" data-name="Layer 1"><path class="cls-1" d="M87.17.21c52.6,2.2,50.3,2.1,52.4,65.1,1.7,48.3,2.4,64-79.7,102.9-75.6,35.6-67.2,6.2-41.9-113.4,9.3-44.5,18.9-56.6,69.2-54.6Zm-53,128.6a4.61,4.61,0,0,0,4.5,4.5h4.5a36.19,36.19,0,0,0,36.3-36.1V70.11A18.1,18.1,0,0,1,97.57,52h4.3a4.61,4.61,0,0,0,4.5-4.5v-9a4.61,4.61,0,0,0-4.5-4.5h-4.5a36,36,0,0,0-36.1,36.1v27.1a18.1,18.1,0,0,1-18.1,18.1h-4.5a4.61,4.61,0,0,0-4.5,4.5v9Z"/><path class="cls-2" d="M254,64.71c-1.6-10.7-9.4-16.4-21.8-16.4-13,0-21.8,6.5-21.8,15.9,0,8.1,7.3,12.7,21,16.6l8.6,2.3c20.8,6,31.4,15.3,31.4,31.2,0,19-15.1,32-39.8,32-22.9,0-39.8-11.7-40.5-32.2H208c.8,12,10.9,17.7,23.6,17.7,14,0,23.4-7.3,23.4-17.1,0-8.8-6.8-13-22.1-17.7l-9.9-2.9c-17.4-5.2-29.1-14.6-29.1-29.6,0-18.4,16.6-30.7,38.5-30.7s37.2,12.7,37.9,31.2l-16.3-.3Zm86.3,45.5V62.41h16.4v82.1h-15.9v-10.7H340c-4.2,6-12.2,11.7-23.6,11.7-12.5,0-26.8-9.1-26.8-31.2v-52H306V114c0,10.9,6.8,16.9,16.1,16.9s18.2-6.7,18.2-20.7Zm85.4-46.3-5.2,14.8a18.27,18.27,0,0,0-7.3-1.8c-11.7,0-19,10.9-19.2,21v46.5h-16.4V62.31H394v13h1c2.3-8.1,11.2-14.3,20-14.3A28.53,28.53,0,0,1,425.67,63.91Zm21.6,80.6V75.91h-12.2V62.41h12.2v-5.7c0-15.6,11.2-23.1,24.4-23.1a39.92,39.92,0,0,1,13.5,2.1L481.57,49a21.75,21.75,0,0,0-7-1.3c-7.5,0-10.7,3.6-10.7,10.9v3.6h17.5v13.5H464v68.6h-16.6l-.1.2Zm107.1-61.9-14.8,2.6c-1.3-4.4-5.5-10.9-15.9-10.9-8.6,0-15.3,4.4-15.3,10.7,0,5.2,4.4,9.1,12.2,10.9l13.5,3.1c14,3.1,21.6,10.7,21.6,21.8,0,14.6-13.3,25.5-33.5,25.5-20,0-30.1-9.9-33.8-22.6l15.3-3.4c2.6,7.5,8.6,13,18.7,13,9.9,0,16.4-5.2,16.4-10.9,0-5.5-4.2-8.1-10.9-9.6l-14-3.4c-14.3-3.4-22.1-11.4-22.1-23.1,0-14.8,13.5-24.7,32.2-24.7,17.1-.3,27,7.8,30.4,21Zm32.2,14.3v47.8h-16.4V35.11h16.1V73h.8c4.2-6.2,12-11.7,23.4-11.7,15.1,0,26,10.4,26,31.2v52h-16.4v-52c0-10.4-5.5-16.6-15.1-16.6-9.8,0-18.4,6.7-18.4,21Zm118,47.6v-10.1h-.8c-2.9,5.2-9.9,12-22.9,12-15.1,0-27.3-9.1-27.3-24.9,0-17.1,14.6-22.9,32.5-24.9,9.4-1,18.2-1,18.2-6v-.8c0-10.7-6-14.8-14.6-14.8-10.1,0-16.4,5.5-18.4,11.2l-15.6-3.6c5.2-15.1,19-21,33.8-21,13.3,0,31.2,4.9,31.2,28.6v54.6h-16.1v-.3Zm-.3-28.6v-11.2c-1.8,2.1-13,3.4-17.7,3.9-9.9,1.3-16.9,4.4-16.9,12.7,0,7.3,6,11.4,14.6,11.4,12.5.1,20-8,20-16.8Zm85.5-52-5.2,14.8a18.27,18.27,0,0,0-7.3-1.8c-11.7,0-19,10.9-19.2,21v46.5h-16.4V62.31h16.4v13h1c2.3-8.1,11.2-14.3,20-14.3a28.53,28.53,0,0,1,10.7,2.9Zm63.1,80.6-26.5-36.6-8.6,9.4v27.3h-16.4V35.11h16.4v61.3h1.3l29.6-33.8h19.7L837,97.71l34,47h-18.2v-.2Z"/></g></g></svg>