<svg xmlns="http://www.w3.org/2000/svg" width="96" height="96" viewBox="0 0 96 96" fill="none"><path fill="#16191C" fill-rule="evenodd" d="M48.487 16.13a3.33 3.33 0 0 0-1.868.008L24 22.844V47.09c0 8.096 3.625 15.724 9.805 20.728.009.007.021.017.04.03.739.56 6.977 5.277 13.094 9.983a4 4 0 1 1-4.878 6.34 2169.521 2169.521 0 0 0-13.04-9.94 9.48 9.48 0 0 1-.25-.196l2.517-3.108-2.518 3.108C20.69 67.49 16 57.565 16 47.09V22.715c0-3.42 2.22-6.501 5.554-7.49l22.791-6.757a11.33 11.33 0 0 1 6.347-.029l-1.102 3.845 1.102-3.845 23.688 6.793c3.368.966 5.62 4.064 5.62 7.509V43.37a4 4 0 0 1-8 0V22.872L48.487 16.13Zm23.688 6.793Zm-48.347-.028Z" clip-rule="evenodd"/><path fill="#FA3556" d="M86.776 57.11a3.832 3.832 0 0 0-5.393 0l-9.547 9.48-9.22-9.156a3.832 3.832 0 0 0-5.392 0 3.769 3.769 0 0 0 0 5.356l9.22 9.157-9.327 9.263a3.769 3.769 0 0 0 0 5.356 3.832 3.832 0 0 0 5.392 0l9.327-9.264 9.655 9.589a3.832 3.832 0 0 0 5.392 0 3.769 3.769 0 0 0 0-5.356l-9.654-9.588 9.547-9.482a3.769 3.769 0 0 0 0-5.356Z"/></svg>
