<svg width="25" height="26" viewBox="0 0 25 26" fill="none" xmlns="http://www.w3.org/2000/svg">
  <path d="M11.4473 2.91342C15.9455 2.23867 20.4523 1.60313 24.9591 0.989944C24.9619 4.86215 24.9591 8.73151 24.9619 12.6037C20.458 12.6205 15.9541 12.6877 11.4473 12.7017C11.4445 9.43705 11.4445 6.17524 11.4473 2.91342Z" fill="#0078D6"/>
  <path d="M0.023468 4.47608C3.4107 3.96373 6.81217 3.52132 10.2137 3.10417C10.2165 6.31559 10.2165 9.52421 10.2194 12.7356C6.82073 12.7328 3.4221 12.7832 0.023468 12.7748V4.47608Z" fill="#0078D6"/>
  <path d="M0.023468 13.7855C3.41925 13.7743 6.81502 13.8275 10.2108 13.8219C10.2108 17.0417 10.2194 20.2616 10.2137 23.4813C6.82072 22.9886 3.4221 22.5575 0.023468 22.1066V13.7855Z" fill="#0078D6"/>
  <path d="M11.4274 13.9143C15.9398 13.9143 20.4494 13.9143 24.959 13.9143C24.9647 17.7752 24.959 21.6362 24.959 25.5C20.4609 24.8393 15.9541 24.2261 11.4473 23.6269C11.4416 20.3903 11.4331 17.1537 11.4274 13.9143Z" fill="#0078D6"/>
  </svg>
  